<svg id="visual" viewBox="0 0 900 600" width="900" height="600" xmlns="http://www.w3.org/2000/svg" xmlns:xlink="http://www.w3.org/1999/xlink" version="1.1"><rect x="0" y="0" width="900" height="600" fill="#001220"></rect><path d="M0 383L21.5 379.7C43 376.3 86 369.7 128.8 371.5C171.7 373.3 214.3 383.7 257.2 389.5C300 395.3 343 396.7 385.8 398.2C428.7 399.7 471.3 401.3 514.2 403C557 404.7 600 406.3 642.8 407.2C685.7 408 728.3 408 771.2 406.8C814 405.7 857 403.3 878.5 402.2L900 401L900 601L878.5 601C857 601 814 601 771.2 601C728.3 601 685.7 601 642.8 601C600 601 557 601 514.2 601C471.3 601 428.7 601 385.8 601C343 601 300 601 257.2 601C214.3 601 171.7 601 128.8 601C86 601 43 601 21.5 601L0 601Z" fill="#009473"></path><path d="M0 437L21.5 435C43 433 86 429 128.8 433.5C171.7 438 214.3 451 257.2 447C300 443 343 422 385.8 414.3C428.7 406.7 471.3 412.3 514.2 414.2C557 416 600 414 642.8 417.3C685.7 420.7 728.3 429.3 771.2 433.8C814 438.3 857 438.7 878.5 438.8L900 439L900 601L878.5 601C857 601 814 601 771.2 601C728.3 601 685.7 601 642.8 601C600 601 557 601 514.2 601C471.3 601 428.7 601 385.8 601C343 601 300 601 257.2 601C214.3 601 171.7 601 128.8 601C86 601 43 601 21.5 601L0 601Z" fill="#5d8836"></path><path d="M0 496L21.5 492.8C43 489.7 86 483.3 128.8 478.5C171.7 473.7 214.3 470.3 257.2 474.3C300 478.3 343 489.7 385.8 491.8C428.7 494 471.3 487 514.2 487.8C557 488.7 600 497.3 642.8 492.8C685.7 488.3 728.3 470.7 771.2 459.8C814 449 857 445 878.5 443L900 441L900 601L878.5 601C857 601 814 601 771.2 601C728.3 601 685.7 601 642.8 601C600 601 557 601 514.2 601C471.3 601 428.7 601 385.8 601C343 601 300 601 257.2 601C214.3 601 171.7 601 128.8 601C86 601 43 601 21.5 601L0 601Z" fill="#92710a"></path><path d="M0 537L21.5 528.7C43 520.3 86 503.7 128.8 500.7C171.7 497.7 214.3 508.3 257.2 508C300 507.7 343 496.3 385.8 496.7C428.7 497 471.3 509 514.2 516.5C557 524 600 527 642.8 521.3C685.7 515.7 728.3 501.3 771.2 497.3C814 493.3 857 499.7 878.5 502.8L900 506L900 601L878.5 601C857 601 814 601 771.2 601C728.3 601 685.7 601 642.8 601C600 601 557 601 514.2 601C471.3 601 428.7 601 385.8 601C343 601 300 601 257.2 601C214.3 601 171.7 601 128.8 601C86 601 43 601 21.5 601L0 601Z" fill="#bb4c2b"></path><path d="M0 547L21.5 546.2C43 545.3 86 543.7 128.8 541.2C171.7 538.7 214.3 535.3 257.2 540.5C300 545.7 343 559.3 385.8 561.2C428.7 563 471.3 553 514.2 550.7C557 548.3 600 553.7 642.8 553.5C685.7 553.3 728.3 547.7 771.2 549.3C814 551 857 560 878.5 564.5L900 569L900 601L878.5 601C857 601 814 601 771.2 601C728.3 601 685.7 601 642.8 601C600 601 557 601 514.2 601C471.3 601 428.7 601 385.8 601C343 601 300 601 257.2 601C214.3 601 171.7 601 128.8 601C86 601 43 601 21.5 601L0 601Z" fill="#c62368"></path></svg>